<?xml version="1.0" standalone="no"?><!-- Generator: Adobe Fireworks CS5, Export SVG Extension by Aaron Beall (http://fireworks.abeall.com) . Version: 0.6.0  --><!DOCTYPE svg PUBLIC "-//W3C//DTD SVG 1.1//EN" "http://www.w3.org/Graphics/SVG/1.1/DTD/svg11.dtd"><svg id="" viewBox="0 0 300 113" style="background-color:#ffffff00" version="1.1"	xmlns="http://www.w3.org/2000/svg" xmlns:xlink="http://www.w3.org/1999/xlink" xml:space="preserve"	x="0px" y="0px" width="300px" height="113px">	<path d="M 0 0 L 30.7205 0 C 45.4475 0 54.587 2.6618 59.7942 6.7184 C 67.6629 12.8055 71.2191 22.0577 71.2191 32.3252 C 71.2191 39.5512 69.1879 45.1307 66.5223 49.3152 C 63.3483 54.2591 58.7775 57.4285 54.3349 59.3269 L 73.7586 93.8104 L 49.0016 93.8104 L 24.5008 48.5518 L 28.4352 48.5518 C 34.5309 48.5518 39.734 48.0442 42.9079 46.0179 C 45.8277 44.1155 48.2391 39.6792 48.2391 34.4794 C 48.2391 29.5355 45.8277 25.6068 42.6558 23.5805 C 39.9882 21.9298 36.1799 21.0425 32.8778 21.0425 L 23.9925 21.0425 L 23.9925 93.8104 L 0 93.8104 L 0 0 Z" fill="#000000"/>	<path d="M 91.1057 65.8885 C 91.9942 73.3662 99.1046 78.3101 107.3556 78.3101 C 114.0836 78.3101 117.6377 75.3966 120.1773 71.7196 L 141.7583 71.7196 C 138.3323 79.5771 133.3813 85.6641 127.4137 89.7207 C 121.5742 93.9053 114.5899 96.0595 107.3556 96.0595 C 87.1693 96.0595 70.0309 79.705 70.0309 58.7862 C 70.0309 39.1386 85.5203 21.0095 106.9733 21.0095 C 117.7638 21.0095 127.0335 25.1941 133.6334 32.1684 C 142.5208 41.6724 145.1864 52.9551 143.5354 65.8885 L 91.1057 65.8885 ZM 122.8429 49.9136 C 122.3346 46.6163 118.02 38.7589 107.1014 38.7589 C 96.1828 38.7589 91.8682 46.6163 91.3599 49.9136 L 122.8429 49.9136 Z" fill="#000000"/>	<path d="M 178.1965 43.1952 C 178.0684 41.6724 177.8163 37.8716 171.5945 37.8716 C 167.1518 37.8716 165.6289 40.6613 165.6289 42.5597 C 165.6289 45.7291 170.832 47.8874 176.4194 49.534 C 188.3526 52.8313 201.0483 56.3803 201.0483 71.5917 C 201.0483 87.0589 187.9704 96.1874 172.357 96.1874 C 161.6925 96.1874 145.5687 91.3673 143.6656 72.8586 L 164.6123 72.8586 C 165.5008 79.3253 171.7205 79.3253 172.6111 79.3253 C 176.1653 79.3253 179.9736 77.2949 179.9736 73.8738 C 179.9736 69.0578 174.7684 68.4223 161.3123 63.2267 C 152.1728 60.309 144.5541 54.3499 144.5541 44.8418 C 144.5541 30.2659 157.2498 21.0095 171.8486 21.0095 C 181.1163 21.0095 197.1119 24.6865 198.889 43.1952 L 178.1965 43.1952 Z" fill="#000000"/>	<path d="M 248.1489 87.6016 C 248.7047 83.5656 250.0623 79.6555 252.1535 76.1064 C 254.4162 72.0704 257.8277 68.6575 261.1277 65.352 C 264.7727 61.708 268.8931 57.5854 269.1204 54.6182 L 269.1245 54.2798 L 269.2237 54.2798 L 269.2237 49.7857 C 269.2237 40.2817 266.8143 21.0095 243.0698 21.0095 C 230.5022 21.0095 226.0595 27.4762 223.646 30.8973 L 223.646 23.4196 L 203.9702 23.4196 L 203.9702 93.7774 L 225.0429 93.7774 L 225.0429 55.4931 C 225.0429 48.267 226.6939 40.7851 237.1042 40.7851 C 246.4999 40.7851 248.1489 47.6315 248.1489 55.3651 L 248.1489 87.6016 Z" fill="#000000"/>	<path d="M 297.0079 80.9306 C 292.6644 72.9866 279.0223 65.4675 278.7413 54.7048 L 278.7413 54.3706 C 278.7413 54.4242 278.7331 54.4779 278.7331 54.5356 C 278.7289 54.4779 278.7248 54.4242 278.7248 54.3706 L 278.7165 54.8452 C 278.3156 65.5336 264.781 73.0196 260.452 80.9224 C 258.5613 84.1 257.4578 87.7894 257.4578 91.7552 C 257.4578 103.4877 266.9796 113 278.7289 113 C 290.4741 113 300 103.4877 300 91.7552 C 300 87.7976 298.8966 84.1042 297.0079 80.9306 Z" fill="#000000"/></svg>