<svg id="" viewBox="0 0 520 200" version="1.1" xmlns="http://www.w3.org/2000/svg" xmlns:xlink="http://www.w3.org/1999/xlink" xml:space="preserve" x="0px" y="0px" width="520px" height="200px">	<g id="resn-logo">		<path d="M 161.8428 115.6198 C 163.3238 128.0606 175.1743 136.2859 188.9259 136.2859 C 200.1393 136.2859 206.0629 131.4386 210.2955 125.3211 L 246.2639 125.3211 C 240.5539 138.3937 232.3022 148.5208 222.3561 155.2699 C 212.6236 162.2318 200.9831 165.8158 188.9259 165.8158 C 155.2822 165.8158 126.7182 138.6065 126.7182 103.8037 C 126.7182 71.1155 152.5339 40.9539 188.2888 40.9539 C 206.2729 40.9539 221.7224 47.9159 232.7224 59.5191 C 247.5347 75.3311 251.9774 94.1023 249.2256 115.6198 L 161.8428 115.6198 ZM 306.9941 77.8646 C 306.7806 75.3311 306.3604 69.0077 295.9908 69.0077 C 288.5864 69.0077 286.0482 73.649 286.0482 76.8073 C 286.0482 82.0802 294.72 85.671 304.0323 88.4105 C 323.921 93.8963 345.0806 99.8009 345.0806 125.1083 C 345.0806 150.8414 323.2839 166.0287 297.2616 166.0287 C 279.4875 166.0287 252.6145 158.0093 249.4426 127.2161 L 284.3538 127.2161 C 285.8346 137.9749 296.2008 137.9749 297.6852 137.9749 C 303.6088 137.9749 309.9559 134.5969 309.9559 128.9051 C 309.9559 120.8927 301.2807 119.8354 278.8538 111.1913 C 263.6213 106.3372 250.9235 96.4229 250.9235 80.604 C 250.9235 56.354 272.083 40.9539 296.4144 40.9539 C 311.8604 40.9539 338.5198 47.0714 341.4816 77.8646 L 306.9941 77.8646 ZM 423.5815 151.7443 L 423.5815 98.1119 C 423.5815 85.2453 420.8333 73.8549 405.1737 73.8549 C 387.8231 73.8549 385.0715 86.3027 385.0715 98.3247 L 385.0715 162.019 L 349.9503 162.019 L 349.9503 44.9636 L 382.7434 44.9636 L 382.7434 57.4044 C 386.7659 51.7127 394.1703 40.9539 415.1163 40.9539 C 454.6905 40.9539 458.7061 73.0173 458.7061 88.8293 L 458.7061 96.3062 L 458.5408 96.3062 L 458.5339 96.8692 C 458.1551 101.8057 451.2878 108.6647 445.2128 114.7272 C 439.7128 120.2267 434.0269 125.9048 430.2558 132.6195 C 426.7706 138.5242 424.5079 145.0295 423.5815 151.7443 ZM 10 6 L 61.2009 6 C 85.7458 6 100.9783 10.4285 109.657 17.1776 C 122.7715 27.3047 128.6985 42.6978 128.6985 59.78 C 128.6985 71.802 125.3131 81.0847 120.8704 88.0466 C 115.5805 96.2719 107.9626 101.5448 100.5581 104.7031 L 132.9311 162.0739 L 91.6693 162.0739 L 50.8347 86.7764 L 57.3919 86.7764 C 67.5515 86.7764 76.2233 85.9319 81.5132 82.5608 C 86.3795 79.3957 90.3985 72.0149 90.3985 63.364 C 90.3985 55.1387 86.3795 48.6024 81.093 45.2313 C 76.6469 42.485 70.2998 41.0088 64.7964 41.0088 L 49.9875 41.0088 L 49.9875 162.0739 L 10 162.0739 L 10 6 ZM 520 0 L 0 0 L 0 200 L 520 200 L 520 0 ZM 510 158.6547 C 510 178.1743 494.1235 194 474.5482 194 C 454.966 194 439.0964 178.1743 439.0964 158.6547 C 439.0964 152.0567 440.9354 145.9186 444.0866 140.632 C 451.3017 127.4839 473.8594 115.0293 474.5275 97.2468 L 474.5413 96.4572 L 474.5551 96.7319 L 474.5688 96.4572 L 474.5688 97.0134 C 475.0372 114.9194 497.774 127.429 505.0132 140.6457 C 508.1609 145.9255 510 152.0704 510 158.6547 ZM 214.7382 89.0422 C 213.891 83.5563 206.7 70.4838 188.5023 70.4838 C 170.3046 70.4838 163.1136 83.5563 162.2664 89.0422 L 214.7382 89.0422 Z"/>	</g></svg>